<svg width="186" height="40" viewBox="0 0 186 40" fill="none" xmlns="http://www.w3.org/2000/svg">
<rect width="186" height="40" rx="4" fill="black"/>
<rect width="40" height="40" rx="1" fill="black"/>
<path d="M20.2363 14.986C21.016 14.986 21.9932 14.4589 22.5752 13.7562C23.1023 13.1193 23.4866 12.2298 23.4866 11.3404C23.4866 11.2196 23.4756 11.0988 23.4537 11C22.5862 11.0329 21.543 11.582 20.9171 12.3177C20.423 12.8777 19.9728 13.7562 19.9728 14.6566C19.9728 14.7884 19.9947 14.9201 20.0057 14.9641C20.0606 14.975 20.1485 14.986 20.2363 14.986ZM17.4911 28.2727C18.5563 28.2727 19.0284 27.559 20.3571 27.559C21.7077 27.559 22.0042 28.2508 23.1901 28.2508C24.3541 28.2508 25.1337 27.1747 25.8694 26.1205C26.693 24.9126 27.0334 23.7267 27.0554 23.6718C26.9785 23.6498 24.7494 22.7384 24.7494 20.1799C24.7494 17.9618 26.5063 16.9625 26.6052 16.8857C25.4412 15.2166 23.6733 15.1727 23.1901 15.1727C21.8834 15.1727 20.8183 15.9633 20.1485 15.9633C19.4237 15.9633 18.4684 15.2166 17.3374 15.2166C15.1852 15.2166 13 16.9955 13 20.3556C13 22.4419 13.8126 24.6491 14.8118 26.0766C15.6683 27.2845 16.415 28.2727 17.4911 28.2727Z" fill="white"/>
<path d="M45.2266 25.7734C47.8516 25.7734 49.5312 24.4297 49.5312 22.2734V22.2656C49.5312 20.5938 48.5625 19.6406 46.1953 19.1328L44.9688 18.8594C43.5078 18.5469 42.9141 18 42.9141 17.1641V17.1562C42.9141 16.0938 43.8906 15.4766 45.2109 15.4766C46.5781 15.4688 47.4609 16.1406 47.6094 17.0625L47.625 17.1641H49.3203L49.3125 17.0547C49.1875 15.3047 47.625 13.9531 45.2344 13.9531C42.8438 13.9531 41.1562 15.2969 41.1484 17.2422V17.25C41.1484 18.9141 42.1328 19.9766 44.4219 20.4609L45.6562 20.7266C47.1484 21.0469 47.7578 21.6094 47.7578 22.4766V22.4844C47.7578 23.5312 46.7344 24.25 45.2969 24.25C43.7891 24.25 42.7031 23.5938 42.6094 22.5703L42.6016 22.4844H40.8828L40.8906 22.5859C41.0469 24.4844 42.6797 25.7734 45.2266 25.7734ZM52.2034 15.5C52.7816 15.5 53.2659 15.0234 53.2659 14.4453C53.2659 13.8594 52.7816 13.3828 52.2034 13.3828C51.6175 13.3828 51.1409 13.8594 51.1409 14.4453C51.1409 15.0234 51.6175 15.5 52.2034 15.5ZM51.3519 25.5H53.0394V17.0156H51.3519V25.5ZM58.7741 28.4922C61.1803 28.4922 62.7037 27.2578 62.7037 25.3281V17.0156H61.0162V18.4062H60.9147C60.4225 17.4531 59.5006 16.8672 58.3131 16.8672C56.11 16.8672 54.7584 18.5781 54.7584 21V21.0156C54.7584 23.4062 56.1022 25.0859 58.2819 25.0859C59.4459 25.0859 60.3834 24.5703 60.8991 23.6484H61.0241V25.3203C61.0241 26.4766 60.1959 27.1328 58.7975 27.1328C57.6491 27.1328 56.9616 26.7188 56.8209 26.1328L56.8131 26.1172H55.1022L55.0866 26.1328C55.2897 27.5469 56.6178 28.4922 58.7741 28.4922ZM58.7506 23.6875C57.3053 23.6875 56.4928 22.5859 56.4928 21.0078V20.9922C56.4928 19.4141 57.3053 18.3047 58.7506 18.3047C60.1803 18.3047 61.0553 19.4141 61.0553 20.9922V21.0078C61.0553 22.5938 60.1881 23.6875 58.7506 23.6875ZM64.8213 25.5H66.5166V20.5234C66.5166 19.1562 67.29 18.3047 68.5322 18.3047C69.7744 18.3047 70.3603 19 70.3603 20.4062V25.5H72.0478V20.0078C72.0478 17.9844 71.0009 16.8516 69.1025 16.8516C67.8681 16.8516 67.0556 17.3984 66.6416 18.3047H66.5166V17.0156H64.8213V25.5ZM79.0328 15.5C79.6109 15.5 80.0953 15.0234 80.0953 14.4453C80.0953 13.8594 79.6109 13.3828 79.0328 13.3828C78.4469 13.3828 77.9703 13.8594 77.9703 14.4453C77.9703 15.0234 78.4469 15.5 79.0328 15.5ZM78.1813 25.5H79.8688V17.0156H78.1813V25.5ZM82.0175 25.5H83.7128V20.5234C83.7128 19.1562 84.4863 18.3047 85.7284 18.3047C86.9706 18.3047 87.5566 19 87.5566 20.4062V25.5H89.2441V20.0078C89.2441 17.9844 88.1972 16.8516 86.2988 16.8516C85.0644 16.8516 84.2519 17.3984 83.8378 18.3047H83.7128V17.0156H82.0175V25.5ZM96.9791 25.5H98.7056L100.456 19.1719H100.588L102.346 25.5H104.088L106.424 17.0156H104.745L103.229 23.5625H103.096L101.346 17.0156H99.7369L97.9869 23.5625H97.8619L96.3384 17.0156H94.6353L96.9791 25.5ZM108.722 15.5C109.3 15.5 109.784 15.0234 109.784 14.4453C109.784 13.8594 109.3 13.3828 108.722 13.3828C108.136 13.3828 107.659 13.8594 107.659 14.4453C107.659 15.0234 108.136 15.5 108.722 15.5ZM107.87 25.5H109.558V17.0156H107.87V25.5ZM114.909 25.5547C115.238 25.5547 115.55 25.5156 115.823 25.4688V24.1172C115.589 24.1406 115.441 24.1484 115.183 24.1484C114.347 24.1484 114.003 23.7734 114.003 22.8594V18.3516H115.823V17.0156H114.003V14.875H112.277V17.0156H110.948V18.3516H112.277V23.2656C112.277 24.8984 113.042 25.5547 114.909 25.5547ZM117.558 25.5H119.253V20.5234C119.253 19.1562 120.027 18.3047 121.269 18.3047C122.511 18.3047 123.097 19 123.097 20.4062V25.5H124.785V20.0078C124.785 17.9844 123.738 16.8516 121.839 16.8516C120.605 16.8516 119.793 17.3984 119.378 18.3047H119.253V13.6875H117.558V25.5ZM130.215 25.5H132.051L133.074 22.4531H137.387L138.402 25.5H140.246L136.176 14.2266H134.285L130.215 25.5ZM135.16 16.2031H135.293L136.918 21.0469H133.543L135.16 16.2031ZM141.692 28.3281H143.387V24.1562H143.512C143.965 25.0703 144.957 25.6406 146.122 25.6406C148.278 25.6406 149.637 23.9531 149.637 21.2656V21.25C149.637 18.5781 148.262 16.8672 146.122 16.8672C144.934 16.8672 144.004 17.4219 143.512 18.3516H143.387V17.0156H141.692V28.3281ZM145.645 24.1953C144.231 24.1953 143.356 23.0781 143.356 21.2656V21.25C143.356 19.4375 144.231 18.3203 145.645 18.3203C147.059 18.3203 147.911 19.4219 147.911 21.25V21.2656C147.911 23.0859 147.059 24.1953 145.645 24.1953ZM151.356 28.3281H153.052V24.1562H153.177C153.63 25.0703 154.622 25.6406 155.786 25.6406C157.942 25.6406 159.302 23.9531 159.302 21.2656V21.25C159.302 18.5781 157.927 16.8672 155.786 16.8672C154.598 16.8672 153.669 17.4219 153.177 18.3516H153.052V17.0156H151.356V28.3281ZM155.309 24.1953C153.895 24.1953 153.02 23.0781 153.02 21.2656V21.25C153.02 19.4375 153.895 18.3203 155.309 18.3203C156.723 18.3203 157.575 19.4219 157.575 21.25V21.2656C157.575 23.0859 156.723 24.1953 155.309 24.1953ZM161.099 25.5H162.794V13.6875H161.099V25.5ZM168.56 25.6641C170.732 25.6641 171.904 24.4141 172.185 23.2969L172.201 23.2266L170.568 23.2344L170.537 23.2969C170.333 23.7344 169.685 24.2734 168.599 24.2734C167.201 24.2734 166.31 23.3281 166.279 21.7031H172.294V21.1094C172.294 18.5625 170.841 16.8516 168.474 16.8516C166.107 16.8516 164.576 18.625 164.576 21.2734V21.2812C164.576 23.9688 166.076 25.6641 168.56 25.6641ZM168.482 18.2422C169.63 18.2422 170.482 18.9766 170.615 20.4922H166.302C166.451 19.0312 167.326 18.2422 168.482 18.2422Z" fill="white"/>
</svg>
